<svg width="28" height="28" viewBox="0 0 28 28" fill="none" xmlns="http://www.w3.org/2000/svg">
<path d="M28 14C28 15.8799 27.6307 17.6727 26.9581 19.3093C25.3336 23.2703 21.9436 26.3243 17.7669 27.4865C17.4816 27.5676 17.1904 27.6396 16.8961 27.6997C15.9623 27.8979 14.9924 28 14.0015 28C13.5061 28 13.0166 27.976 12.5332 27.9249C12.2179 27.8919 11.9056 27.8468 11.5964 27.7928C11.188 27.7207 10.7886 27.6336 10.3923 27.5285C9.85781 27.3874 9.33234 27.2132 8.82488 27.009C7.65084 26.5435 6.55486 25.9219 5.56097 25.1712C3.97856 23.976 2.66037 22.4504 1.70552 20.6997C0.61855 18.7087 0 16.4264 0 14C0 6.26727 6.2696 0 14.0015 0C21.7334 0 28 6.26727 28 14Z" fill="#F6F1EA"/>
<path d="M17.7669 27.4865C16.5688 27.8228 15.3047 28 14.0015 28C13.1818 28 12.377 27.9309 11.5964 27.7928C11.188 27.7207 10.7886 27.6336 10.3923 27.5285C9.85781 27.3874 9.33234 27.2132 8.82488 27.009L9.81924 17L15.2391 15.7207L17.395 16.3603L17.7669 27.4865Z" fill="#FCC182"/>
<path d="M10.6348 6.84983C10.6348 6.84983 8.57795 4.3153 9.13345 3.97897C9.68894 3.64563 10.2144 4.15614 10.2144 4.15614C10.2144 4.15614 14.4062 3.49548 15.9345 3.93092C17.4629 4.36635 18.4868 6.86785 18.4868 6.86785C18.4868 6.86785 19.2525 6.79578 19.5768 7.84383C19.9011 8.88887 17.646 14.036 16.2018 13.7657C14.7605 13.4955 10.6288 6.84983 10.6288 6.84983H10.6348Z" fill="#121212"/>
<path d="M16.1929 12.937L16.265 16.4385C16.265 16.4385 15.6554 17.4565 13.6106 17.6667C12.0882 17.8229 11.5448 17.4866 11.5448 17.4866L11.8961 13.976L15.5774 13.0872L16.1959 12.937H16.1929Z" fill="#FCB597"/>
<path d="M15.5744 13.0871C15.5683 13.1832 15.5323 13.2973 15.4783 13.4264C14.7306 15.1922 12.5957 15.6096 11.7189 15.7087L11.8931 13.976L15.5744 13.0871Z" fill="#121212"/>
<path d="M10.9537 6.01203C10.9537 6.01203 9.20613 10.4385 9.97782 12.8619C10.7525 15.2853 12.9685 14.8198 14.2867 14.3003C15.6048 13.7808 16.1934 12.94 16.1934 12.94C16.1934 12.94 17.4545 13.3183 18.2472 12.1291C19.0399 10.94 18.4784 9.62764 17.7548 9.34837C17.0311 9.06909 16.2054 9.61263 16.2054 9.61263L16.8239 8.32133C16.8239 8.32133 13.8032 1.985 10.9537 6.01503V6.01203Z" fill="#FCB597"/>
<path d="M10.9537 6.01203C10.9537 6.01203 12.3163 5.46245 12.8958 5.94293C13.4783 6.42341 14.1629 10.4805 16.2047 9.6096C18.2465 8.73873 17.1896 6.13813 17.1896 6.13813C17.1896 6.13813 12.052 1.73873 10.95 6.012L10.9537 6.01203Z" fill="#121212"/>
<path d="M11.7237 15.7087C11.7237 15.7087 11.0841 21.6126 10.3935 27.5285C6.64913 26.5345 3.52333 24.027 1.70671 20.6997C2.8177 19.5345 4.59529 17.5856 6.12966 16.964C8.80805 15.8769 11.7237 15.7087 11.7237 15.7087Z" fill="#2C2C2C"/>
<path d="M13.1699 17.8439C12.2661 17.8439 11.5605 17.6457 11.5004 17.6277C11.4223 17.6037 11.3743 17.5226 11.3983 17.4415C11.4223 17.3604 11.5064 17.3154 11.5845 17.3394C11.6145 17.3484 14.5811 18.1772 16.1485 16.3394C16.2026 16.2763 16.2987 16.2703 16.3587 16.3214C16.4218 16.3754 16.4308 16.4715 16.3768 16.5346C15.4759 17.5916 14.1938 17.8439 13.1699 17.8439Z" fill="white"/>
<path d="M26.9581 19.3093C25.3336 23.2703 21.9436 26.3243 17.7669 27.4865C17.4816 27.5676 17.1904 27.6396 16.8961 27.6997C16.4697 23.0841 16.2443 14.982 16.2443 14.982C16.2443 14.982 22.3099 14.6517 26.9581 19.3093Z" fill="#2C2C2C"/>
<path d="M16.3619 11.5616C16.3259 11.5616 16.2869 11.5466 16.2568 11.5195C16.1968 11.4625 16.1968 11.3664 16.2538 11.3063L17.3558 10.1652C17.4129 10.1051 17.509 10.1051 17.569 10.1622C17.6291 10.2192 17.6291 10.3153 17.572 10.3754L16.47 11.5165C16.44 11.5466 16.401 11.5616 16.3619 11.5616Z" fill="#121212"/>
<path d="M17.8541 11.2823C17.8541 11.2823 17.8301 11.2823 17.815 11.2763L16.8632 11.0271C16.7821 11.006 16.7341 10.9249 16.7551 10.8439C16.7761 10.7628 16.8572 10.7147 16.9383 10.7358L17.8901 10.985C17.9712 11.006 18.0192 11.0871 17.9982 11.1682C17.9802 11.2343 17.9201 11.2793 17.8541 11.2793V11.2823Z" fill="#121212"/>
<path d="M10.6651 7.99998C10.6321 7.99998 10.6021 7.99097 10.575 7.96995C10.509 7.91889 10.497 7.82881 10.545 7.76274C10.557 7.74773 10.8453 7.37235 11.5659 7.47745C11.647 7.48947 11.704 7.56454 11.692 7.64863C11.68 7.72971 11.602 7.78676 11.5209 7.77475C10.9864 7.69667 10.7912 7.93391 10.7822 7.94292C10.7522 7.97896 10.7072 7.99998 10.6621 7.99998H10.6651Z" fill="#121212"/>
<path d="M13.9621 8.04206C13.9291 8.04206 13.8931 8.03005 13.8661 8.00603C13.4787 7.68471 13.0343 7.80183 13.0313 7.80483C12.9502 7.82585 12.8692 7.7808 12.8451 7.69972C12.8241 7.61864 12.8692 7.53756 12.9502 7.51354C12.9743 7.50753 13.5538 7.35137 14.0582 7.7748C14.1213 7.82885 14.1303 7.92194 14.0763 7.98501C14.0462 8.02104 14.0042 8.03906 13.9621 8.03906V8.04206Z" fill="#121212"/>
<path d="M10.8089 9.74471C10.7128 9.7387 10.6528 9.66363 10.6588 9.58255L10.7248 8.76873C10.7308 8.68465 10.7999 8.62759 10.887 8.6306C10.9681 8.6366 11.0311 8.70867 11.0251 8.79276L10.959 9.60657C10.953 9.68465 10.887 9.74471 10.8089 9.74471Z" fill="#121212"/>
<path d="M13.221 9.84383C13.1249 9.83782 13.0649 9.76275 13.0709 9.68167L13.1369 8.86785C13.143 8.78677 13.212 8.72671 13.2991 8.72971C13.3802 8.73572 13.4432 8.80779 13.4372 8.89188L13.3712 9.70569C13.3651 9.78376 13.2991 9.84383 13.221 9.84383Z" fill="#121212"/>
<path d="M11.3953 11.6877C11.3382 11.6877 11.2842 11.6546 11.2572 11.5976C10.7467 10.4534 11.5124 9.5315 11.5454 9.49246C11.5995 9.4294 11.6925 9.42039 11.7556 9.47445C11.8186 9.5285 11.8277 9.62159 11.7736 9.68466C11.7466 9.71769 11.098 10.5045 11.5304 11.4714C11.5634 11.5465 11.5304 11.6366 11.4553 11.6696C11.4343 11.6787 11.4133 11.6817 11.3953 11.6817V11.6877Z" fill="#121212"/>
<path d="M12.3466 12.4205C12.2625 12.4205 12.1965 12.3544 12.1965 12.2703C12.1965 12.1862 12.2625 12.1202 12.3466 12.1202C12.3676 12.1202 12.8781 12.1112 13.0582 11.6757C13.0913 11.5976 13.1783 11.5616 13.2534 11.5946C13.3285 11.6277 13.3645 11.7148 13.3345 11.7898C13.0732 12.4145 12.3736 12.4205 12.3466 12.4205Z" fill="#121212"/>
</svg>
